# 3ds Max Wavefront OBJ Exporter v0.97b - (c)2007 guruware
# File Created: 21.01.2018 22:37:28

mtllib Sword.mtl

#
# object Pommel
#

v  -0.2366 0.0000 0.4667
v  -0.2366 0.0000 -0.4667
v  0.2366 0.0000 -0.4667
v  0.2366 0.0000 0.4667
v  -0.2610 0.2000 -0.5148
v  0.2610 0.2000 -0.5148
v  -0.2610 0.2000 0.5148
v  0.2610 0.2000 0.5148
v  -0.2854 0.4000 -0.5629
v  0.2854 0.4000 -0.5629
v  -0.2854 0.4000 0.5629
v  0.2854 0.4000 0.5629
v  -0.3098 0.6000 -0.6109
v  0.3098 0.6000 -0.6109
v  -0.3098 0.6000 0.6109
v  0.3098 0.6000 0.6109
v  -0.3341 0.8000 -0.6590
v  0.3341 0.8000 -0.6590
v  -0.3341 0.8000 0.6590
v  0.3341 0.8000 0.6590
v  -0.3585 1.0000 -0.7071
v  0.3585 1.0000 -0.7071
v  -0.3585 1.0000 0.7071
v  0.3585 1.0000 0.7071
# 24 vertices

vn 0.0000 -1.0000 -0.0000
vn 0.4281 -0.3219 -0.8444
vn -0.4281 -0.3219 -0.8444
vn -0.4281 -0.3219 0.8444
vn 0.4281 -0.3219 0.8444
vn 0.0000 1.0000 -0.0000
# 6 vertex normals

vt 0.2500 0.0000 0.6600
vt 0.0000 0.0000 0.6600
vt -0.2500 0.0000 0.6600
vt 0.7500 0.0000 0.6600
vt 0.5000 0.0000 0.6600
vt 0.0000 0.2000 0.7280
vt -0.2500 0.2000 0.7280
vt 0.2500 0.2000 0.7280
vt 0.5000 0.2000 0.7280
vt 0.7500 0.2000 0.7280
vt 0.0000 0.4000 0.7960
vt -0.2500 0.4000 0.7960
vt 0.2500 0.4000 0.7960
vt 0.5000 0.4000 0.7960
vt 0.7500 0.4000 0.7960
vt 0.0000 0.6000 0.8640
vt -0.2500 0.6000 0.8640
vt 0.2500 0.6000 0.8640
vt 0.5000 0.6000 0.8640
vt 0.7500 0.6000 0.8640
vt 0.0000 0.8000 0.9320
vt -0.2500 0.8000 0.9320
vt 0.2500 0.8000 0.9320
vt 0.5000 0.8000 0.9320
vt 0.7500 0.8000 0.9320
vt 0.0000 1.0000 1.0000
vt -0.2500 1.0000 1.0000
vt 0.2500 1.0000 1.0000
vt 0.5000 1.0000 1.0000
vt 0.7500 1.0000 1.0000
vt 1.0000 1.0000 -1.0000
# 31 texture coords

g Pommel
usemtl wire_008061138
s 1
f 1/1/1 2/2/1 3/3/1 
f 3/4/1 4/5/1 1/1/1 
s 8
f 3/3/2 2/2/3 5/6/3 6/7/2 
f 2/2/3 1/1/4 7/8/4 5/6/3 
f 1/1/4 4/5/5 8/9/5 7/8/4 
f 4/5/5 3/4/2 6/10/2 8/9/5 
f 6/7/2 5/6/3 9/11/3 10/12/2 
f 5/6/3 7/8/4 11/13/4 9/11/3 
f 7/8/4 8/9/5 12/14/5 11/13/4 
f 8/9/5 6/10/2 10/15/2 12/14/5 
f 10/12/2 9/11/3 13/16/3 14/17/2 
f 9/11/3 11/13/4 15/18/4 13/16/3 
f 11/13/4 12/14/5 16/19/5 15/18/4 
f 12/14/5 10/15/2 14/20/2 16/19/5 
f 14/17/2 13/16/3 17/21/3 18/22/2 
f 13/16/3 15/18/4 19/23/4 17/21/3 
f 15/18/4 16/19/5 20/24/5 19/23/4 
f 16/19/5 14/20/2 18/25/2 20/24/5 
f 18/22/2 17/21/3 21/26/3 22/27/2 
f 17/21/3 19/23/4 23/28/4 21/26/3 
f 19/23/4 20/24/5 24/29/5 23/28/4 
f 20/24/5 18/25/2 22/30/2 24/29/5 
s 1
f 24/31/6 22/27/6 21/26/6 
f 21/26/6 23/28/6 24/29/6 
# 20 polygons - 4 triangles

#
# object Grip
#

v  -0.2366 1.0000 0.4667
v  -0.2366 1.0000 -0.4667
v  0.2366 1.0000 -0.4667
v  0.2366 1.0000 0.4667
v  -0.2610 2.0000 -0.5148
v  0.2610 2.0000 -0.5148
v  -0.2610 2.0000 0.5148
v  0.2610 2.0000 0.5148
v  -0.2854 3.0000 -0.5629
v  0.2854 3.0000 -0.5629
v  -0.2854 3.0000 0.5629
v  0.2854 3.0000 0.5629
v  -0.3098 4.0000 -0.6109
v  0.3098 4.0000 -0.6109
v  -0.3098 4.0000 0.6109
v  0.3098 4.0000 0.6109
v  -0.3341 5.0000 -0.6590
v  0.3341 5.0000 -0.6590
v  -0.3341 5.0000 0.6590
v  0.3341 5.0000 0.6590
v  -0.3585 6.0000 -0.7071
v  0.3585 6.0000 -0.7071
v  -0.3585 6.0000 0.7071
v  0.3585 6.0000 0.7071
# 24 vertices

vn 0.0000 -1.0000 -0.0000
vn 0.4512 -0.0678 -0.8899
vn -0.4512 -0.0678 -0.8899
vn -0.4512 -0.0678 0.8899
vn 0.4512 -0.0678 0.8899
vn 0.0000 1.0000 -0.0000
# 6 vertex normals

vt 0.2500 0.0000 0.6600
vt 0.0000 0.0000 0.6600
vt -0.2500 0.0000 0.6600
vt 0.7500 0.0000 0.6600
vt 0.5000 0.0000 0.6600
vt 0.0000 0.2000 0.7280
vt -0.2500 0.2000 0.7280
vt 0.2500 0.2000 0.7280
vt 0.5000 0.2000 0.7280
vt 0.7500 0.2000 0.7280
vt 0.0000 0.4000 0.7960
vt -0.2500 0.4000 0.7960
vt 0.2500 0.4000 0.7960
vt 0.5000 0.4000 0.7960
vt 0.7500 0.4000 0.7960
vt 0.0000 0.6000 0.8640
vt -0.2500 0.6000 0.8640
vt 0.2500 0.6000 0.8640
vt 0.5000 0.6000 0.8640
vt 0.7500 0.6000 0.8640
vt 0.0000 0.8000 0.9320
vt -0.2500 0.8000 0.9320
vt 0.2500 0.8000 0.9320
vt 0.5000 0.8000 0.9320
vt 0.7500 0.8000 0.9320
vt 0.0000 1.0000 1.0000
vt -0.2500 1.0000 1.0000
vt 0.2500 1.0000 1.0000
vt 0.5000 1.0000 1.0000
vt 0.7500 1.0000 1.0000
vt 1.0000 1.0000 -1.0000
# 31 texture coords

g Grip
usemtl wire_008061138
s 1
f 25/32/7 26/33/7 27/34/7 
f 27/35/7 28/36/7 25/32/7 
s 8
f 27/34/8 26/33/9 29/37/9 30/38/8 
f 26/33/9 25/32/10 31/39/10 29/37/9 
f 25/32/10 28/36/11 32/40/11 31/39/10 
f 28/36/11 27/35/8 30/41/8 32/40/11 
f 30/38/8 29/37/9 33/42/9 34/43/8 
f 29/37/9 31/39/10 35/44/10 33/42/9 
f 31/39/10 32/40/11 36/45/11 35/44/10 
f 32/40/11 30/41/8 34/46/8 36/45/11 
f 34/43/8 33/42/9 37/47/9 38/48/8 
f 33/42/9 35/44/10 39/49/10 37/47/9 
f 35/44/10 36/45/11 40/50/11 39/49/10 
f 36/45/11 34/46/8 38/51/8 40/50/11 
f 38/48/8 37/47/9 41/52/9 42/53/8 
f 37/47/9 39/49/10 43/54/10 41/52/9 
f 39/49/10 40/50/11 44/55/11 43/54/10 
f 40/50/11 38/51/8 42/56/8 44/55/11 
f 42/53/8 41/52/9 45/57/9 46/58/8 
f 41/52/9 43/54/10 47/59/10 45/57/9 
f 43/54/10 44/55/11 48/60/11 47/59/10 
f 44/55/11 42/56/8 46/61/8 48/60/11 
s 1
f 48/62/12 46/58/12 45/57/12 
f 45/57/12 47/59/12 48/60/12 
# 20 polygons - 4 triangles

#
# object Blade
#

v  -0.2719 6.8998 1.0607
v  -0.2719 6.8998 -1.0607
v  0.2719 6.8998 -1.0607
v  0.2719 6.8998 1.0607
v  -0.2175 11.2998 -0.8485
v  0.2175 11.2998 -0.8485
v  -0.2175 11.2998 0.8485
v  0.2175 11.2998 0.8485
v  -0.1631 15.6998 -0.6364
v  0.1631 15.6998 -0.6364
v  -0.1631 15.6998 0.6364
v  0.1631 15.6998 0.6364
v  -0.1088 20.0998 -0.4243
v  0.1088 20.0998 -0.4243
v  -0.1088 20.0998 0.4243
v  0.1088 20.0998 0.4243
v  -0.0544 24.4998 -0.2121
v  0.0544 24.4998 -0.2121
v  -0.0544 24.4998 0.2121
v  0.0544 24.4998 0.2121
v  0.0000 28.8998 0.0000
# 21 vertices

vn 0.0000 -1.0000 -0.0000
vn 0.2477 0.0680 -0.9664
vn -0.2477 0.0680 -0.9664
vn -0.2477 0.0680 0.9664
vn 0.2477 0.0680 0.9664
vn -0.0000 0.0482 -1.3683
vn 0.3508 0.0482 -0.0000
vn -0.3508 0.0482 0.0000
vn 0.0000 0.0482 1.3683
vn 0.2483 0.0000 -0.9687
# 10 vertex normals

vt 0.2500 0.0000 1.0000
vt 0.0000 0.0000 1.0000
vt -0.2500 0.0000 1.0000
vt 0.7500 0.0000 1.0000
vt 0.5000 0.0000 1.0000
vt 0.0000 0.2000 0.8000
vt -0.2500 0.2000 0.8000
vt 0.2500 0.2000 0.8000
vt 0.5000 0.2000 0.8000
vt 0.7500 0.2000 0.8000
vt 0.0000 0.4000 0.6000
vt -0.2500 0.4000 0.6000
vt 0.2500 0.4000 0.6000
vt 0.5000 0.4000 0.6000
vt 0.7500 0.4000 0.6000
vt 0.0000 0.6000 0.4000
vt -0.2500 0.6000 0.4000
vt 0.2500 0.6000 0.4000
vt 0.5000 0.6000 0.4000
vt 0.7500 0.6000 0.4000
vt 0.0000 0.8000 0.2000
vt -0.2500 0.8000 0.2000
vt 0.2500 0.8000 0.2000
vt 0.5000 0.8000 0.2000
vt 0.7500 0.8000 0.2000
vt 0.5000 1.0000 0.0000
# 26 texture coords

g Blade
usemtl wire_008061138
s 1
f 49/63/13 50/64/13 51/65/13 
f 51/66/13 52/67/13 49/63/13 
s 8
f 51/65/14 50/64/15 53/68/15 54/69/14 
f 50/64/15 49/63/16 55/70/16 53/68/15 
f 49/63/16 52/67/17 56/71/17 55/70/16 
f 52/67/17 51/66/14 54/72/14 56/71/17 
f 54/69/14 53/68/15 57/73/15 58/74/14 
f 53/68/15 55/70/16 59/75/16 57/73/15 
f 55/70/16 56/71/17 60/76/17 59/75/16 
f 56/71/17 54/72/14 58/77/14 60/76/17 
f 58/74/14 57/73/15 61/78/15 62/79/14 
f 57/73/15 59/75/16 63/80/16 61/78/15 
f 59/75/16 60/76/17 64/81/17 63/80/16 
f 60/76/17 58/77/14 62/82/14 64/81/17 
f 62/79/14 61/78/15 65/83/15 66/84/14 
f 61/78/15 63/80/16 67/85/16 65/83/15 
f 63/80/16 64/81/17 68/86/17 67/85/16 
f 64/81/17 62/82/14 66/87/14 68/86/17 
f 66/84/14 65/83/15 69/88/18 69/88/19 
f 65/83/15 67/85/16 69/88/20 69/88/18 
f 67/85/16 68/86/17 69/88/21 69/88/20 
f 68/86/17 66/87/14 69/88/19 69/88/21 
s 1
f 69/88/22 69/88/22 69/88/22 
f 69/88/22 69/88/22 69/88/22 
# 20 polygons - 4 triangles

#
# object Cross_Guard_End001
#

v  0.5710 6.8988 4.2055
v  0.5710 6.0859 4.2055
v  -0.5710 6.0859 4.2055
v  -0.5710 6.8988 4.2055
v  0.5139 6.1266 4.3737
v  -0.5139 6.1266 4.3737
v  0.5139 6.8582 4.3737
v  -0.5139 6.8582 4.3737
v  0.4568 6.1672 4.5419
v  -0.4568 6.1672 4.5419
v  0.4568 6.8175 4.5419
v  -0.4568 6.8175 4.5419
v  0.3997 6.2079 4.7101
v  -0.3997 6.2079 4.7101
v  0.3997 6.7769 4.7101
v  -0.3997 6.7769 4.7101
v  0.3426 6.2485 4.8784
v  -0.3426 6.2485 4.8784
v  0.3426 6.7363 4.8784
v  -0.3426 6.7363 4.8784
v  0.2855 6.2892 5.0466
v  -0.2855 6.2892 5.0466
v  0.2855 6.6956 5.0466
v  -0.2855 6.6956 5.0466
# 24 vertices

vn 0.0000 0.0000 -1.0000
vn -0.6674 -0.4751 0.5735
vn 0.6674 -0.4751 0.5735
vn 0.6674 0.4751 0.5735
vn -0.6674 0.4751 0.5735
vn -0.0000 -0.0000 1.0000
# 6 vertex normals

vt 0.2500 0.0000 1.0000
vt 0.0000 0.0000 1.0000
vt -0.2500 0.0000 1.0000
vt 0.7500 0.0000 1.0000
vt 0.5000 0.0000 1.0000
vt 0.0000 0.2000 0.9000
vt -0.2500 0.2000 0.9000
vt 0.2500 0.2000 0.9000
vt 0.5000 0.2000 0.9000
vt 0.7500 0.2000 0.9000
vt 0.0000 0.4000 0.8000
vt -0.2500 0.4000 0.8000
vt 0.2500 0.4000 0.8000
vt 0.5000 0.4000 0.8000
vt 0.7500 0.4000 0.8000
vt 0.0000 0.6000 0.7000
vt -0.2500 0.6000 0.7000
vt 0.2500 0.6000 0.7000
vt 0.5000 0.6000 0.7000
vt 0.7500 0.6000 0.7000
vt 0.0000 0.8000 0.6000
vt -0.2500 0.8000 0.6000
vt 0.2500 0.8000 0.6000
vt 0.5000 0.8000 0.6000
vt 0.7500 0.8000 0.6000
vt 0.0000 1.0000 0.5000
vt -0.2500 1.0000 0.5000
vt 0.2500 1.0000 0.5000
vt 0.5000 1.0000 0.5000
vt 0.7500 1.0000 0.5000
vt 1.0000 1.0000 -0.5000
# 31 texture coords

g Cross_Guard_End001
usemtl wire_008061138
s 1
f 70/89/23 71/90/23 72/91/23 
f 72/92/23 73/93/23 70/89/23 
s 8
f 72/91/24 71/90/25 74/94/25 75/95/24 
f 71/90/25 70/89/26 76/96/26 74/94/25 
f 70/89/26 73/93/27 77/97/27 76/96/26 
f 73/93/27 72/92/24 75/98/24 77/97/27 
f 75/95/24 74/94/25 78/99/25 79/100/24 
f 74/94/25 76/96/26 80/101/26 78/99/25 
f 76/96/26 77/97/27 81/102/27 80/101/26 
f 77/97/27 75/98/24 79/103/24 81/102/27 
f 79/100/24 78/99/25 82/104/25 83/105/24 
f 78/99/25 80/101/26 84/106/26 82/104/25 
f 80/101/26 81/102/27 85/107/27 84/106/26 
f 81/102/27 79/103/24 83/108/24 85/107/27 
f 83/105/24 82/104/25 86/109/25 87/110/24 
f 82/104/25 84/106/26 88/111/26 86/109/25 
f 84/106/26 85/107/27 89/112/27 88/111/26 
f 85/107/27 83/108/24 87/113/24 89/112/27 
f 87/110/24 86/109/25 90/114/25 91/115/24 
f 86/109/25 88/111/26 92/116/26 90/114/25 
f 88/111/26 89/112/27 93/117/27 92/116/26 
f 89/112/27 87/113/24 91/118/24 93/117/27 
s 1
f 93/119/28 91/115/28 90/114/28 
f 90/114/28 92/116/28 93/117/28 
# 20 polygons - 4 triangles

#
# object Cross_Guard_End
#

v  -0.5710 6.8988 -4.2055
v  -0.5710 6.0859 -4.2055
v  0.5710 6.0859 -4.2055
v  0.5710 6.8988 -4.2055
v  -0.5139 6.1266 -4.3737
v  0.5139 6.1266 -4.3737
v  -0.5139 6.8582 -4.3737
v  0.5139 6.8582 -4.3737
v  -0.4568 6.1672 -4.5419
v  0.4568 6.1672 -4.5419
v  -0.4568 6.8175 -4.5419
v  0.4568 6.8175 -4.5419
v  -0.3997 6.2079 -4.7101
v  0.3997 6.2079 -4.7101
v  -0.3997 6.7769 -4.7101
v  0.3997 6.7769 -4.7101
v  -0.3426 6.2485 -4.8784
v  0.3426 6.2485 -4.8784
v  -0.3426 6.7363 -4.8784
v  0.3426 6.7363 -4.8784
v  -0.2855 6.2892 -5.0466
v  0.2855 6.2892 -5.0466
v  -0.2855 6.6956 -5.0466
v  0.2855 6.6956 -5.0466
# 24 vertices

vn 0.0000 0.0000 1.0000
vn 0.6674 -0.4751 -0.5735
vn -0.6674 -0.4751 -0.5735
vn -0.6674 0.4751 -0.5735
vn 0.6674 0.4751 -0.5735
vn -0.0000 -0.0000 -1.0000
# 6 vertex normals

vt 0.2500 0.0000 1.0000
vt 0.0000 0.0000 1.0000
vt -0.2500 0.0000 1.0000
vt 0.7500 0.0000 1.0000
vt 0.5000 0.0000 1.0000
vt 0.0000 0.2000 0.9000
vt -0.2500 0.2000 0.9000
vt 0.2500 0.2000 0.9000
vt 0.5000 0.2000 0.9000
vt 0.7500 0.2000 0.9000
vt 0.0000 0.4000 0.8000
vt -0.2500 0.4000 0.8000
vt 0.2500 0.4000 0.8000
vt 0.5000 0.4000 0.8000
vt 0.7500 0.4000 0.8000
vt 0.0000 0.6000 0.7000
vt -0.2500 0.6000 0.7000
vt 0.2500 0.6000 0.7000
vt 0.5000 0.6000 0.7000
vt 0.7500 0.6000 0.7000
vt 0.0000 0.8000 0.6000
vt -0.2500 0.8000 0.6000
vt 0.2500 0.8000 0.6000
vt 0.5000 0.8000 0.6000
vt 0.7500 0.8000 0.6000
vt 0.0000 1.0000 0.5000
vt -0.2500 1.0000 0.5000
vt 0.2500 1.0000 0.5000
vt 0.5000 1.0000 0.5000
vt 0.7500 1.0000 0.5000
vt 1.0000 1.0000 -0.5000
# 31 texture coords

g Cross_Guard_End
usemtl wire_008061138
s 1
f 94/120/29 95/121/29 96/122/29 
f 96/123/29 97/124/29 94/120/29 
s 8
f 96/122/30 95/121/31 98/125/31 99/126/30 
f 95/121/31 94/120/32 100/127/32 98/125/31 
f 94/120/32 97/124/33 101/128/33 100/127/32 
f 97/124/33 96/123/30 99/129/30 101/128/33 
f 99/126/30 98/125/31 102/130/31 103/131/30 
f 98/125/31 100/127/32 104/132/32 102/130/31 
f 100/127/32 101/128/33 105/133/33 104/132/32 
f 101/128/33 99/129/30 103/134/30 105/133/33 
f 103/131/30 102/130/31 106/135/31 107/136/30 
f 102/130/31 104/132/32 108/137/32 106/135/31 
f 104/132/32 105/133/33 109/138/33 108/137/32 
f 105/133/33 103/134/30 107/139/30 109/138/33 
f 107/136/30 106/135/31 110/140/31 111/141/30 
f 106/135/31 108/137/32 112/142/32 110/140/31 
f 108/137/32 109/138/33 113/143/33 112/142/32 
f 109/138/33 107/139/30 111/144/30 113/143/33 
f 111/141/30 110/140/31 114/145/31 115/146/30 
f 110/140/31 112/142/32 116/147/32 114/145/31 
f 112/142/32 113/143/33 117/148/33 116/147/32 
f 113/143/33 111/144/30 115/149/30 117/148/33 
s 1
f 117/150/34 115/146/34 114/145/34 
f 114/145/34 116/147/34 117/148/34 
# 20 polygons - 4 triangles

#
# object Cross_Guard001
#

v  0.6526 6.9569 0.0000
v  0.6526 6.0279 -0.0000
v  -0.6526 6.0279 -0.0000
v  -0.6526 6.9569 -0.0000
v  0.5874 6.0743 0.8411
v  -0.5874 6.0743 0.8411
v  0.5874 6.9105 0.8411
v  -0.5874 6.9104 0.8411
v  0.5221 6.1208 1.6822
v  -0.5221 6.1208 1.6822
v  0.5221 6.8640 1.6822
v  -0.5221 6.8640 1.6822
v  0.4568 6.1672 2.5233
v  -0.4568 6.1672 2.5233
v  0.4568 6.8175 2.5233
v  -0.4568 6.8175 2.5233
v  0.3916 6.2137 3.3644
v  -0.3916 6.2137 3.3644
v  0.3916 6.7711 3.3644
v  -0.3916 6.7711 3.3644
v  0.3263 6.2601 4.2055
v  -0.3263 6.2601 4.2055
v  0.3263 6.7246 4.2055
v  -0.3263 6.7246 4.2055
# 24 vertices

vn 0.0000 0.0000 -1.0000
vn -0.8045 -0.5726 0.1580
vn 0.8045 -0.5726 0.1580
vn 0.8045 0.5726 0.1580
vn -0.8045 0.5726 0.1580
vn -0.0000 -0.0000 1.0000
# 6 vertex normals

vt 0.2500 0.0000 1.0000
vt 0.0000 0.0000 1.0000
vt -0.2500 0.0000 1.0000
vt 0.7500 0.0000 1.0000
vt 0.5000 0.0000 1.0000
vt 0.0000 0.2000 0.9000
vt -0.2500 0.2000 0.9000
vt 0.2500 0.2000 0.9000
vt 0.5000 0.2000 0.9000
vt 0.7500 0.2000 0.9000
vt 0.0000 0.4000 0.8000
vt -0.2500 0.4000 0.8000
vt 0.2500 0.4000 0.8000
vt 0.5000 0.4000 0.8000
vt 0.7500 0.4000 0.8000
vt 0.0000 0.6000 0.7000
vt -0.2500 0.6000 0.7000
vt 0.2500 0.6000 0.7000
vt 0.5000 0.6000 0.7000
vt 0.7500 0.6000 0.7000
vt 0.0000 0.8000 0.6000
vt -0.2500 0.8000 0.6000
vt 0.2500 0.8000 0.6000
vt 0.5000 0.8000 0.6000
vt 0.7500 0.8000 0.6000
vt 0.0000 1.0000 0.5000
vt -0.2500 1.0000 0.5000
vt 0.2500 1.0000 0.5000
vt 0.5000 1.0000 0.5000
vt 0.7500 1.0000 0.5000
vt 1.0000 1.0000 -0.5000
# 31 texture coords

g Cross_Guard001
usemtl wire_008061138
s 1
f 118/151/35 119/152/35 120/153/35 
f 120/154/35 121/155/35 118/151/35 
s 8
f 120/153/36 119/152/37 122/156/37 123/157/36 
f 119/152/37 118/151/38 124/158/38 122/156/37 
f 118/151/38 121/155/39 125/159/39 124/158/38 
f 121/155/39 120/154/36 123/160/36 125/159/39 
f 123/157/36 122/156/37 126/161/37 127/162/36 
f 122/156/37 124/158/38 128/163/38 126/161/37 
f 124/158/38 125/159/39 129/164/39 128/163/38 
f 125/159/39 123/160/36 127/165/36 129/164/39 
f 127/162/36 126/161/37 130/166/37 131/167/36 
f 126/161/37 128/163/38 132/168/38 130/166/37 
f 128/163/38 129/164/39 133/169/39 132/168/38 
f 129/164/39 127/165/36 131/170/36 133/169/39 
f 131/167/36 130/166/37 134/171/37 135/172/36 
f 130/166/37 132/168/38 136/173/38 134/171/37 
f 132/168/38 133/169/39 137/174/39 136/173/38 
f 133/169/39 131/170/36 135/175/36 137/174/39 
f 135/172/36 134/171/37 138/176/37 139/177/36 
f 134/171/37 136/173/38 140/178/38 138/176/37 
f 136/173/38 137/174/39 141/179/39 140/178/38 
f 137/174/39 135/175/36 139/180/36 141/179/39 
s 1
f 141/181/40 139/177/40 138/176/40 
f 138/176/40 140/178/40 141/179/40 
# 20 polygons - 4 triangles

#
# object Cross_Guard
#

v  -0.6526 6.9569 -0.0000
v  -0.6526 6.0279 0.0000
v  0.6526 6.0279 -0.0000
v  0.6526 6.9569 -0.0000
v  -0.5874 6.0743 -0.8411
v  0.5874 6.0743 -0.8411
v  -0.5874 6.9105 -0.8411
v  0.5874 6.9105 -0.8411
v  -0.5221 6.1208 -1.6822
v  0.5221 6.1208 -1.6822
v  -0.5221 6.8640 -1.6822
v  0.5221 6.8640 -1.6822
v  -0.4568 6.1672 -2.5233
v  0.4568 6.1672 -2.5233
v  -0.4568 6.8175 -2.5233
v  0.4568 6.8175 -2.5233
v  -0.3916 6.2137 -3.3644
v  0.3916 6.2137 -3.3644
v  -0.3916 6.7711 -3.3644
v  0.3916 6.7711 -3.3644
v  -0.3263 6.2601 -4.2055
v  0.3263 6.2601 -4.2055
v  -0.3263 6.7246 -4.2055
v  0.3263 6.7246 -4.2055
# 24 vertices

vn 0.0000 0.0000 1.0000
vn 0.8045 -0.5726 -0.1580
vn -0.8045 -0.5726 -0.1580
vn -0.8045 0.5726 -0.1580
vn 0.8045 0.5726 -0.1580
vn -0.0000 -0.0000 -1.0000
# 6 vertex normals

vt 0.2500 0.0000 1.0000
vt 0.0000 0.0000 1.0000
vt -0.2500 0.0000 1.0000
vt 0.7500 0.0000 1.0000
vt 0.5000 0.0000 1.0000
vt 0.0000 0.2000 0.9000
vt -0.2500 0.2000 0.9000
vt 0.2500 0.2000 0.9000
vt 0.5000 0.2000 0.9000
vt 0.7500 0.2000 0.9000
vt 0.0000 0.4000 0.8000
vt -0.2500 0.4000 0.8000
vt 0.2500 0.4000 0.8000
vt 0.5000 0.4000 0.8000
vt 0.7500 0.4000 0.8000
vt 0.0000 0.6000 0.7000
vt -0.2500 0.6000 0.7000
vt 0.2500 0.6000 0.7000
vt 0.5000 0.6000 0.7000
vt 0.7500 0.6000 0.7000
vt 0.0000 0.8000 0.6000
vt -0.2500 0.8000 0.6000
vt 0.2500 0.8000 0.6000
vt 0.5000 0.8000 0.6000
vt 0.7500 0.8000 0.6000
vt 0.0000 1.0000 0.5000
vt -0.2500 1.0000 0.5000
vt 0.2500 1.0000 0.5000
vt 0.5000 1.0000 0.5000
vt 0.7500 1.0000 0.5000
vt 1.0000 1.0000 -0.5000
# 31 texture coords

g Cross_Guard
usemtl wire_008061138
s 1
f 142/182/41 143/183/41 144/184/41 
f 144/185/41 145/186/41 142/182/41 
s 8
f 144/184/42 143/183/43 146/187/43 147/188/42 
f 143/183/43 142/182/44 148/189/44 146/187/43 
f 142/182/44 145/186/45 149/190/45 148/189/44 
f 145/186/45 144/185/42 147/191/42 149/190/45 
f 147/188/42 146/187/43 150/192/43 151/193/42 
f 146/187/43 148/189/44 152/194/44 150/192/43 
f 148/189/44 149/190/45 153/195/45 152/194/44 
f 149/190/45 147/191/42 151/196/42 153/195/45 
f 151/193/42 150/192/43 154/197/43 155/198/42 
f 150/192/43 152/194/44 156/199/44 154/197/43 
f 152/194/44 153/195/45 157/200/45 156/199/44 
f 153/195/45 151/196/42 155/201/42 157/200/45 
f 155/198/42 154/197/43 158/202/43 159/203/42 
f 154/197/43 156/199/44 160/204/44 158/202/43 
f 156/199/44 157/200/45 161/205/45 160/204/44 
f 157/200/45 155/201/42 159/206/42 161/205/45 
f 159/203/42 158/202/43 162/207/43 163/208/42 
f 158/202/43 160/204/44 164/209/44 162/207/43 
f 160/204/44 161/205/45 165/210/45 164/209/44 
f 161/205/45 159/206/42 163/211/42 165/210/45 
s 1
f 165/212/46 163/208/46 162/207/46 
f 162/207/46 164/209/46 165/210/46 
# 20 polygons - 4 triangles

#
# object BladeDent
#

v  0.3620 6.8998 0.3157
v  -0.3620 6.8998 0.3157
v  -0.3620 6.8998 -0.3157
v  0.3620 6.8998 -0.3157
v  -0.2896 10.4998 0.2525
v  -0.2896 10.4998 -0.2525
v  0.2896 10.4998 0.2525
v  0.2896 10.4998 -0.2525
v  -0.2172 14.0998 0.1894
v  -0.2172 14.0998 -0.1894
v  0.2172 14.0998 0.1894
v  0.2172 14.0998 -0.1894
v  -0.1448 17.6998 0.1263
v  -0.1448 17.6998 -0.1263
v  0.1448 17.6998 0.1263
v  0.1448 17.6998 -0.1263
v  -0.0724 21.2998 0.0631
v  -0.0724 21.2998 -0.0631
v  0.0724 21.2998 0.0631
v  0.0724 21.2998 -0.0631
v  0.0000 24.8998 0.0000
# 21 vertices

vn 0.0000 -1.0000 -0.0000
vn -0.7511 0.0830 -0.6549
vn -0.7511 0.0830 0.6549
vn 0.7511 0.0830 0.6549
vn 0.7511 0.0830 -0.6549
vn -1.0641 0.0588 0.0000
vn -0.0000 0.0588 -0.9278
vn 0.0000 0.0588 0.9278
vn 1.0641 0.0588 -0.0000
vn -0.7537 0.0000 -0.6572
# 10 vertex normals

vt 0.2500 0.0000 1.0000
vt 0.0000 0.0000 1.0000
vt -0.2500 0.0000 1.0000
vt 0.7500 0.0000 1.0000
vt 0.5000 0.0000 1.0000
vt 0.0000 0.2000 0.8000
vt -0.2500 0.2000 0.8000
vt 0.2500 0.2000 0.8000
vt 0.5000 0.2000 0.8000
vt 0.7500 0.2000 0.8000
vt 0.0000 0.4000 0.6000
vt -0.2500 0.4000 0.6000
vt 0.2500 0.4000 0.6000
vt 0.5000 0.4000 0.6000
vt 0.7500 0.4000 0.6000
vt 0.0000 0.6000 0.4000
vt -0.2500 0.6000 0.4000
vt 0.2500 0.6000 0.4000
vt 0.5000 0.6000 0.4000
vt 0.7500 0.6000 0.4000
vt 0.0000 0.8000 0.2000
vt -0.2500 0.8000 0.2000
vt 0.2500 0.8000 0.2000
vt 0.5000 0.8000 0.2000
vt 0.7500 0.8000 0.2000
vt 0.5000 1.0000 0.0000
# 26 texture coords

g BladeDent
usemtl wire_008061138
s 1
f 166/213/47 167/214/47 168/215/47 
f 168/216/47 169/217/47 166/213/47 
s 8
f 168/215/48 167/214/49 170/218/49 171/219/48 
f 167/214/49 166/213/50 172/220/50 170/218/49 
f 166/213/50 169/217/51 173/221/51 172/220/50 
f 169/217/51 168/216/48 171/222/48 173/221/51 
f 171/219/48 170/218/49 174/223/49 175/224/48 
f 170/218/49 172/220/50 176/225/50 174/223/49 
f 172/220/50 173/221/51 177/226/51 176/225/50 
f 173/221/51 171/222/48 175/227/48 177/226/51 
f 175/224/48 174/223/49 178/228/49 179/229/48 
f 174/223/49 176/225/50 180/230/50 178/228/49 
f 176/225/50 177/226/51 181/231/51 180/230/50 
f 177/226/51 175/227/48 179/232/48 181/231/51 
f 179/229/48 178/228/49 182/233/49 183/234/48 
f 178/228/49 180/230/50 184/235/50 182/233/49 
f 180/230/50 181/231/51 185/236/51 184/235/50 
f 181/231/51 179/232/48 183/237/48 185/236/51 
f 183/234/48 182/233/49 186/238/52 186/238/53 
f 182/233/49 184/235/50 186/238/54 186/238/52 
f 184/235/50 185/236/51 186/238/55 186/238/54 
f 185/236/51 183/237/48 186/238/53 186/238/55 
s 1
f 186/238/56 186/238/56 186/238/56 
f 186/238/56 186/238/56 186/238/56 
# 20 polygons - 4 triangles

